HIERARCHY
ROOT Hips
{
	OFFSET 0.00000 0.00000 0.00000
	CHANNELS 6 Xposition Yposition Zposition Zrotation Yrotation Xrotation 
	JOINT LHipJoint
	{
		OFFSET 0 0 0
		CHANNELS 3 Zrotation Yrotation Xrotation
		JOINT LeftHip
		{
			OFFSET 1.81424 -1.42316 1.18090
			CHANNELS 3 Zrotation Yrotation Xrotation
			JOINT LeftKnee
			{
				OFFSET 2.15837 -5.93008 0.00000
				CHANNELS 3 Zrotation Yrotation Xrotation
				JOINT LeftAnkle
				{
					OFFSET 2.51759 -6.91701 0.00000
					CHANNELS 3 Zrotation Yrotation Xrotation
					JOINT LeftToe
					{
						OFFSET 0.18318 -0.50327 1.95113
						CHANNELS 3 Zrotation Yrotation Xrotation
						End Site
						{
							OFFSET 0.00000 -0.00000 1.01524
						}
					}
				}
			}
		}
	}
	JOINT RHipJoint
	{
		OFFSET 0 0 0
		CHANNELS 3 Zrotation Yrotation Xrotation
		JOINT RightHip
		{
			OFFSET -1.43917 -1.42316 1.18090
			CHANNELS 3 Zrotation Yrotation Xrotation
			JOINT RightKnee
			{
				OFFSET -2.25237 -6.18833 0.00000
				CHANNELS 3 Zrotation Yrotation Xrotation
				JOINT RightAnkle
				{
					OFFSET -2.46496 -6.77243 0.00000
					CHANNELS 3 Zrotation Yrotation Xrotation
					JOINT RightToe
					{
						OFFSET -0.26285 -0.72219 1.76148
						CHANNELS 3 Zrotation Yrotation Xrotation
						End Site
						{
							OFFSET -0.00000 -0.00000 0.95109
						}
					}
				}
			}
		}
	}
	JOINT lowerback
	{
		OFFSET 0 0 0
		CHANNELS 3 Zrotation Yrotation Xrotation
		JOINT Chest
		{
			OFFSET -0.08725 1.93754 -0.28890
			CHANNELS 3 Zrotation Yrotation Xrotation
			JOINT Chest2
			{
				OFFSET 0.01195 1.94849 0.05967
				CHANNELS 3 Zrotation Yrotation Xrotation
				JOINT lowerneck
				{
					OFFSET 0 0 0
					CHANNELS 3 Zrotation Yrotation Xrotation
					JOINT Neck
					{
						OFFSET 0.02762 1.60124 0.34160
						CHANNELS 3 Zrotation Yrotation Xrotation
						JOINT Head
						{
							OFFSET -0.04785 1.66713 -0.24070
							CHANNELS 3 Zrotation Yrotation Xrotation
							End Site
							{
								OFFSET -0.02188 1.68591 -0.11959
							}
						}
					}
				}
				JOINT LeftCollar
				{
					OFFSET 0 0 0
					CHANNELS 3 Zrotation Yrotation Xrotation
					JOINT LeftShoulder
					{
						OFFSET 2.59610 1.78696 -0.28854
CHANNELS 3 Zrotation Xrotation Yrotation
						JOINT LeftElbow
						{
OFFSET 0 -5.178530 0.000000
CHANNELS 3 Zrotation Xrotation Yrotation
							JOINT LeftWrist
							{
OFFSET 0 -3.403990 -0.000000
CHANNELS 3 Zrotation Xrotation Yrotation
								JOINT lhand
								{
									OFFSET 0 0 0
CHANNELS 3 Zrotation Xrotation Yrotation
									JOINT LFingers
									{
OFFSET 0 -0.708960 -0.000000
CHANNELS 3 Zrotation Xrotation Yrotation
										End Site
										{
OFFSET 0 -0.571590 -0.000000
										}
									}
								}
								JOINT LThumb
								{
OFFSET 0 0.000000 0.000000
CHANNELS 3 Zrotation Xrotation Yrotation
									End Site
									{
OFFSET 0 -0.580310 0.580310
									}
								}
							}
						}
					}
				}
				JOINT RightCollar
				{
					OFFSET 0 0 0
					CHANNELS 3 Zrotation Yrotation Xrotation
					JOINT RightShoulder
					{
						OFFSET -2.87749 1.55486 -0.73085
CHANNELS 3 Zrotation Xrotation Yrotation
						JOINT RightElbow
						{
OFFSET 0 -5.423510 -0.000000
CHANNELS 3 Zrotation Xrotation Yrotation
							JOINT RightWrist
							{
OFFSET 0 -3.420660 -0.000000
CHANNELS 3 Zrotation Xrotation Yrotation
								JOINT rhand
								{
									OFFSET 0 0 0
CHANNELS 3 Zrotation Xrotation Yrotation
									JOINT RFingers
									{
OFFSET 0 -0.743610 -0.000000
CHANNELS 3 Zrotation Xrotation Yrotation
										End Site
										{
OFFSET 0 -0.599520 -0.000000
										}
									}
								}
								JOINT RThumb
								{
OFFSET 0 0.000000 0.000000
CHANNELS 3 Zrotation Xrotation Yrotation
									End Site
									{
OFFSET 0 -0.608670 0.608670
									}
								}
							}
						}
					}
				}
			}
		}
	}
}
MOTION
Frames: 15
Frame Time: .0083333
-4.7647 1.5046 -1.3462 134.7330 80.0978 31.8289 0.0000 0.0000 0.0000 -10.9079 10.0311 -20.8852 13.8656 19.0728 71.7936 0.2220 5.9841 8.7746 0.1806 2.7373 7.5482 0.0000 0.0000 0.0000 -7.0756 -38.5883 -19.3683 -7.7026 -15.8961 51.4841 0.7884 -15.5309 -6.9690 -0.2280 3.0732 -8.4826 -5.3215 2.1948 21.2885 2.6320 2.0931 2.3429 5.3370 1.3449 -9.6412 2.8562 -0.1056 -22.3614 0.0254 -1.0395 14.5059 -0.5889 -0.3190 8.1379 -0.0000 0.0000 0.0000 65.5713 19.2626 -35.2468 10.4030 -17.3674 1.5931 10.7101 1.2648 19.4023 0.0 0.0 0.0 -7.1250 0.0 0.0 -11.3590 10.558 -9.2743 -0.0000 0.0000 0.0000 -64.6081 8.2557 36.9529 -9.2813 -15.6075 -1.2747 6.2445 27.1472 -26.7813 0.0 0.0 0.0 7.1250 0.0 -0.0 21.3730 4.5381 21.1771
-4.7698 1.5060 -1.3465 134.2720 80.1405 31.4119 0.0000 0.0000 0.0000 -10.8191 10.0478 -20.9126 13.8581 19.0704 71.7708 0.2229 6.0114 8.7970 0.2036 2.9052 8.0150 0.0000 0.0000 0.0000 -6.9267 -38.5819 -19.3857 -7.6845 -15.8822 51.4182 0.7909 -15.5545 -6.9725 -0.2416 3.1634 -8.7339 -5.2287 2.1776 21.2172 2.6652 2.0988 2.3523 5.3191 1.3431 -9.5909 2.8042 -0.1088 -22.4360 0.0765 -1.0407 14.5466 -0.5638 -0.3163 8.1647 0.0000 -0.0000 0.0000 65.5632 19.2675 -35.3667 10.4115 -17.3807 1.5957 10.6693 1.1143 19.3951 0.0 0.0 0.0 -7.1250 0.0 0.0 -11.3853 10.5689 -9.2941 0.0000 -0.0000 0.0000 -64.7471 8.1934 37.4005 -9.2906 -15.6224 -1.2773 6.395 26.7285 -26.6941 0.0 0.0 0.0 7.1250 0.0 -0.0 21.4620 4.6237 21.2432
-4.7739 1.5071 -1.3467 133.8430 80.1969 31.0416 0.0000 0.0000 0.0000 -10.7263 10.0427 -20.9650 13.8593 19.0708 71.7742 0.2286 5.9145 8.8647 0.1957 2.8487 7.8578 0.0000 0.0000 0.0000 -6.7684 -38.5908 -19.4271 -7.6717 -15.8724 51.3715 0.7919 -15.5637 -6.9754 -0.2566 3.2591 -9.0009 -5.1183 2.1677 21.1230 2.6821 2.1174 2.3585 5.2692 1.3461 -9.5322 2.8241 -0.1123 -22.5402 0.0924 -1.0592 14.6077 -0.5647 -0.3210 8.2026 -0.0000 0.0000 0.0000 65.5933 19.2216 -35.4321 10.4220 -17.397 1.5988 10.5139 1.1547 19.2868 0.0 0.0 0.0 -7.1250 0.0 0.0 -11.4847 10.6903 -9.3497 -0.0000 0.0000 0.0000 -64.7085 8.2058 37.4044 -9.2514 -15.5602 -1.2667 6.4305 26.5068 -26.9483 0.0 0.0 0.0 7.1250 0.0 -0.0 21.4663 4.3862 21.3504
-4.7746 1.5076 -1.3463 133.7250 80.2557 30.9162 0.0000 0.0000 0.0000 -10.6697 10.0107 -20.9548 13.8637 19.0722 71.7879 0.2330 5.8513 8.9210 0.2022 2.8955 7.9880 0.0000 0.0000 0.0000 -6.7357 -38.5993 -19.3611 -7.6610 -15.8642 51.3323 0.7930 -15.5788 -7.0551 -0.2304 3.0893 -8.5274 -5.0107 2.1639 21.0937 2.6596 2.1383 2.3983 5.1755 1.3495 -9.4699 2.7296 -0.1848 -22.7329 0.2682 -1.1688 14.6667 -0.5053 -0.3573 8.2553 0.0000 0.0000 0.0000 65.6345 19.0988 -35.2981 10.4298 -17.4091 1.6011 10.5868 1.2449 19.2423 0.0 0.0 0.0 -7.1250 0.0 0.0 -11.4377 10.7279 -9.3008 0.0000 0.0000 0.0000 -64.5687 8.2866 37.2546 -9.2263 -15.5204 -1.26 6.3167 26.4219 -27.1301 0.0 0.0 0.0 7.1250 0.0 -0.0 21.3925 4.2127 21.3388
-4.7749 1.5081 -1.3480 133.3520 80.2886 30.5432 0.0000 0.0000 0.0000 -10.5703 10.0769 -20.9727 13.8729 19.0751 71.8161 0.2322 5.8280 8.9027 0.2180 3.0054 8.2938 0.0000 0.0000 0.0000 -6.6542 -38.5884 -19.3507 -7.6546 -15.8592 51.3088 0.7999 -15.6374 -6.9773 -0.2434 3.1750 -8.7662 -4.9720 2.1355 21.0993 2.6790 2.1110 2.3942 5.1828 1.3354 -9.4733 2.6295 -0.2197 -22.7873 0.4353 -1.2199 14.7335 -0.4398 -0.3675 8.2885 -0.0000 -0.0000 0.0000 65.6419 19.1872 -35.3702 10.4464 -17.4348 1.6061 10.9482 0.9873 19.3315 0.0 0.0 0.0 -7.1250 0.0 0.0 -11.2054 10.6064 -9.1324 -0.0000 -0.0000 0.0000 -64.6708 8.2101 37.7571 -9.2571 -15.5692 -1.2682 6.3053 26.0218 -27.2091 0.0 0.0 0.0 7.1250 0.0 -0.0 21.3816 4.1384 21.3577
-4.7717 1.5093 -1.3498 132.9890 80.3011 30.1081 0.0000 0.0000 0.0000 -10.4415 10.2336 -20.9327 13.8847 19.0787 71.8522 0.2314 5.7472 8.8700 0.2064 2.9253 8.0709 0.0000 0.0000 0.0000 -6.6768 -38.5671 -19.2260 -7.6525 -15.8576 51.3012 0.7947 -15.5919 -7.0113 -0.2197 3.0177 -8.3280 -4.9118 2.1227 21.1608 2.6909 2.1076 2.4043 5.1617 1.3325 -9.4935 2.6102 -0.2234 -22.8082 0.5140 -1.2359 14.7940 -0.4124 -0.3665 8.3133 0.0000 0.0000 0.0000 65.7033 19.2367 -35.6979 10.4515 -17.4427 1.6076 11.2491 0.5845 19.3455 0.0 0.0 0.0 -7.1250 0.0 0.0 -11.0118 10.5646 -8.978 0.0000 0.0000 0.0000 -64.6591 8.1391 37.4354 -9.2456 -15.551 -1.2652 6.53 26.6769 -27.3791 0.0 0.0 0.0 7.1250 0.0 -0.0 21.4959 3.9846 21.5568
-4.7714 1.5111 -1.3510 132.5440 80.3160 29.6768 0.0000 0.0000 0.0000 -10.3351 10.3226 -20.9593 13.8948 19.0818 71.8829 0.2282 5.5883 8.7825 0.1911 2.8150 7.7641 0.0000 0.0000 0.0000 -6.5936 -38.5694 -19.2473 -7.6523 -15.8574 51.3002 0.7957 -15.5985 -6.9641 -0.2226 3.0370 -8.3818 -4.7949 2.1206 21.0973 2.7006 2.1371 2.4381 5.0964 1.3402 -9.4214 2.5168 -0.2655 -22.9222 0.6310 -1.2904 14.8272 -0.3654 -0.3836 8.3447 0.0000 0.0000 0.0000 65.7551 19.1785 -36.0161 10.4528 -17.4447 1.608 11.3411 0.2193 19.2699 0.0 0.0 0.0 -7.1250 0.0 0.0 -10.9518 10.6311 -8.912 0.0000 0.0000 0.0000 -64.5421 8.1437 36.8038 -9.2100 -15.4945 -1.2556 6.6847 27.4726 -27.509 0.0 0.0 0.0 7.1250 0.0 -0.0 21.5735 3.8666 21.6983
-4.7695 1.5114 -1.3514 132.3050 80.3628 29.4192 0.0000 0.0000 0.0000 -10.2472 10.3600 -20.9616 13.9050 19.0850 71.9142 0.2275 5.4363 8.7383 0.1891 2.8003 7.7232 0.0000 0.0000 0.0000 -6.5634 -38.5663 -19.1841 -7.6502 -15.8558 51.2926 0.7913 -15.5659 -7.0858 -0.1991 2.8735 -7.9268 -4.6739 2.1161 21.1073 2.7046 2.1605 2.4552 5.0236 1.3466 -9.4067 2.4661 -0.2890 -23.0092 0.6674 -1.3163 14.8441 -0.3487 -0.3941 8.3654 -0.0000 0.0000 0.0000 65.8022 19.1183 -36.2313 10.4744 -17.4781 1.6145 11.3934 0.0374 19.2104 0.0 0.0 0.0 -7.1250 0.0 0.0 -10.9175 10.6854 -8.8707 -0.0000 0.0000 0.0000 -64.2745 8.283 36.0601 -9.1520 -15.4023 -1.2402 6.3924 27.8774 -27.5389 0.0 0.0 0.0 7.1250 0.0 -0.0 21.4107 3.8312 21.5223
-4.7700 1.5124 -1.3527 131.7450 80.4229 28.8646 0.0000 0.0000 0.0000 -10.1147 10.3944 -20.9707 13.9126 19.0873 71.9373 0.2358 5.4344 8.8744 0.1887 2.7975 7.7154 0.0000 0.0000 0.0000 -6.4463 -38.5676 -19.1647 -7.6454 -15.8521 51.2751 0.7947 -15.5948 -7.0547 -0.2079 2.9356 -8.0995 -4.4685 2.1162 21.0807 2.7108 2.2114 2.4771 4.8967 1.3624 -9.3670 2.4156 -0.3318 -23.0962 0.7041 -1.3679 14.8423 -0.3353 -0.4169 8.3794 -0.0000 0.0000 0.0000 65.8057 18.9979 -36.1002 10.4951 -17.5103 1.6207 11.3569 0.2485 19.1571 0.0 0.0 0.0 -7.1250 0.0 0.0 -10.9406 10.7419 -8.8774 -0.0000 0.0000 0.0000 -64.0389 8.4012 35.1598 -9.1070 -15.3308 -1.2283 6.0682 28.3068 -27.3817 0.0 0.0 0.0 7.1250 0.0 -0.0 21.2405 3.9699 21.2647
-4.7721 1.5140 -1.3531 131.3260 80.4588 28.3733 0.0000 0.0000 0.0000 -10.0362 10.3496 -20.8507 13.9120 19.0871 71.9354 0.2382 5.5322 8.9352 0.1785 2.7216 7.5047 0.0000 0.0000 0.0000 -6.4421 -38.5780 -19.0313 -7.6355 -15.8445 51.2389 0.7959 -15.6040 -7.0266 -0.1997 2.8776 -7.9382 -4.4845 2.0897 21.1327 2.7659 2.1764 2.4786 4.9772 1.3483 -9.3922 2.3466 -0.3470 -23.0595 0.8233 -1.3909 14.9433 -0.2870 -0.4171 8.4093 0.0000 -0.0000 0.0000 65.727 19.1397 -35.8929 10.4813 -17.4889 1.6166 11.2979 0.4176 19.2707 0.0 0.0 0.0 -7.1250 0.0 0.0 -10.9797 10.6344 -8.9349 0.0000 -0.0000 0.0000 -64.4168 8.2682 36.4225 -9.1906 -15.4637 -1.2505 6.0329 27.0827 -27.1255 0.0 0.0 0.0 7.1250 0.0 -0.0 21.2354 4.2095 21.1577
-4.7756 1.5152 -1.3536 130.8400 80.4944 27.8943 0.0000 0.0000 0.0000 -9.9705 10.2751 -20.8146 13.9100 19.0865 71.9293 0.2332 5.5940 8.8655 0.1599 2.5767 7.1024 0.0000 0.0000 0.0000 -6.3460 -38.6043 -19.0218 -7.6245 -15.8360 51.1986 0.7973 -15.6097 -6.9132 -0.2106 2.9548 -8.1529 -4.4907 2.0588 21.1044 2.8260 2.1406 2.4773 5.0588 1.3323 -9.3767 2.2627 -0.3554 -23.0704 0.9528 -1.4031 15.0291 -0.2314 -0.4120 8.4422 -0.0000 -0.0000 0.0000 65.6796 19.2672 -35.9488 10.4578 -17.4525 1.6095 11.3021 0.2924 19.3154 0.0 0.0 0.0 -7.1250 0.0 0.0 -10.9773 10.5895 -8.9431 -0.0000 -0.0000 0.0000 -64.5862 8.1436 36.8808 -9.2249 -15.5181 -1.2596 6.1138 26.86 -27.0536 0.0 0.0 0.0 7.1250 0.0 -0.0 21.2844 4.2791 21.185
-4.7793 1.5159 -1.3534 130.4010 80.5206 27.5239 0.0000 0.0000 0.0000 -9.8948 10.2871 -20.8703 13.9055 19.0851 71.9155 0.2337 5.5587 8.8673 0.1607 2.5825 7.1186 0.0000 0.0000 0.0000 -6.1902 -38.5589 -19.0774 -7.6137 -15.8276 51.1590 0.8000 -15.6340 -6.9023 -0.2152 2.9864 -8.2410 -4.3701 2.0618 21.0057 2.8328 2.1772 2.4989 4.9863 1.3433 -9.2996 2.1790 -0.4148 -23.2052 1.0460 -1.4796 15.0529 -0.1970 -0.4413 8.4739 0.0000 -0.0000 0.0000 65.7188 19.1749 -36.1041 10.4741 -17.4778 1.6144 11.444 0.0897 19.2123 0.0 0.0 0.0 -7.1250 0.0 0.0 -10.8850 10.6789 -8.8447 0.0000 -0.0000 0.0000 -64.2247 8.2048 35.2737 -9.1543 -15.406 -1.2408 6.1596 28.5164 -27.1974 0.0 0.0 0.0 7.1250 0.0 -0.0 21.3015 4.1454 21.2616
-4.7829 1.5168 -1.3531 130.0730 80.5406 27.2426 0.0000 0.0000 0.0000 -9.8204 10.3442 -20.9140 13.9005 19.0836 71.9004 0.2288 5.4719 8.7666 0.1895 2.8035 7.7323 0.0000 0.0000 0.0000 -6.0767 -38.5171 -19.1006 -7.6045 -15.8205 51.1254 0.8032 -15.6675 -6.9733 -0.2114 2.9600 -8.1674 -4.3124 2.0579 20.9312 2.8459 2.1889 2.5028 4.9647 1.3458 -9.2548 2.1515 -0.4468 -23.2541 1.0923 -1.5252 15.0813 -0.1832 -0.4583 8.4923 0.0000 -0.0000 0.0000 65.6903 19.1517 -35.9453 10.4743 -17.478 1.6145 11.574 0.1556 19.3703 0.0 0.0 0.0 -7.1250 0.0 0.0 -10.8027 10.5093 -8.8134 0.0000 -0.0000 0.0000 -64.3207 8.2333 35.6838 -9.1974 -15.4745 -1.2523 6.2509 28.1378 -27.199 0.0 0.0 0.0 7.1250 0.0 -0.0 21.3520 4.1464 21.3199
-4.7844 1.5174 -1.3538 129.7140 80.5748 26.8979 0.0000 0.0000 0.0000 -9.7414 10.3575 -20.9221 13.9015 19.0839 71.9034 0.2212 5.4358 8.6312 0.2149 2.9844 8.2353 0.0000 0.0000 0.0000 -6.0065 -38.5488 -19.0985 -7.5991 -15.8164 51.1056 0.8025 -15.6627 -6.9980 -0.2055 2.9190 -8.0533 -4.3198 2.0207 20.9305 2.8839 2.1398 2.4625 5.0260 1.3243 -9.2952 2.2678 -0.3570 -23.1448 0.9897 -1.4186 15.1250 -0.2222 -0.4130 8.4878 0.0000 -0.0000 0.0000 65.634 19.3113 -35.7819 10.4736 -17.4769 1.6143 11.5796 0.3238 19.4774 0.0 0.0 0.0 -7.1250 0.0 0.0 -10.8002 10.402 -8.8353 0.0000 -0.0000 0.0000 -64.6297 8.1628 36.9885 -9.2820 -15.6086 -1.2749 6.4096 27.0277 -27.0389 0.0 0.0 0.0 7.1250 0.0 -0.0 21.4494 4.3007 21.3673
-4.7860 1.5184 -1.3544 129.3680 80.5962 26.5890 0.0000 0.0000 0.0000 -9.6854 10.3538 -20.9529 13.9043 19.0848 71.9121 0.2241 5.3419 8.6601 0.1878 2.7911 7.6976 0.0000 0.0000 0.0000 -5.9281 -38.5739 -19.1350 -7.5937 -15.8121 51.0855 0.8032 -15.6680 -6.9714 -0.1961 2.8513 -7.8651 -4.2245 2.0157 20.8485 2.8980 2.1595 2.4835 4.9812 1.3287 -9.2270 2.2599 -0.3437 -23.1944 0.9535 -1.3928 15.1487 -0.2299 -0.4050 8.5041 -0.0000 0.0000 0.0000 65.6517 19.2689 -35.9252 10.5069 -17.5285 1.6243 11.5467 0.2367 19.2955 0.0 0.0 0.0 -7.1250 0.0 0.0 -10.8195 10.5862 -8.8104 -0.0000 0.0000 0.0000 -64.5672 8.2085 36.812 -9.2578 -15.5703 -1.2684 6.4625 27.0906 -27.2548 0.0 0.0 0.0 7.1250 0.0 -0.0 21.4659 4.0995 21.4726
